<svg class="icon" viewBox="0 0 1269 1024" xmlns="http://www.w3.org/2000/svg"><path d="M1189.478 610.304l-64.307-53.248a253.583 253.583 0 0 0 62.669-167.936 268.165 268.165 0 0 0-51.2-155.648l64.717-49.152a337.428 337.428 0 0 1 68.403 204.8 343.654 343.654 0 0 1-80.282 221.184zM999.424 454.656A98.836 98.836 0 0 0 1024 389.12a101.908 101.908 0 0 0-14.746-53.248l63.898-49.152a179.241 179.241 0 0 1 32.768 102.4 185.958 185.958 0 0 1-43.827 118.784zM409.6 245.76L901.12 0v860.16L409.6 614.4V245.76zM163.84 1024H40.96V614.4H0V245.76h40.96v-81.92h122.88v81.92h163.84V614.4H163.84V1024zm81.92-655.36v-81.92h-81.92v81.92h81.92z"/></svg>