<svg class="icon" viewBox="0 0 1200 1024" xmlns="http://www.w3.org/2000/svg"><path d="M1129.931 953.38a70.833 70.833 0 0 1-70.62-70.621H953.378v70.62A70.833 70.833 0 0 1 882.76 1024H70.62A70.62 70.62 0 0 1 0 953.38V317.792a70.62 70.62 0 0 1 70.62-70.62h353.104V141.24H70.621A70.62 70.62 0 0 1 70.62 0h459.034a70.62 70.62 0 0 1 0 141.241v105.931h181.848l241.876 169.49v148.304h105.931a70.62 70.62 0 0 1 141.242 0v317.793a70.833 70.833 0 0 1-70.621 70.62zM741.517 388.413a70.62 70.62 0 1 0 70.62 70.62 70.833 70.833 0 0 0-70.62-70.62z"/></svg>