<svg class="icon" viewBox="0 0 1024 1024" xmlns="http://www.w3.org/2000/svg"><path d="M1003.028 670.1a162.917 162.917 0 0 1-127.304 90.15s-82.805 13.54-168.012-65.333l-88.873-81.604a147.456 147.456 0 0 0 39.569-87.002l324.267 1.378s41.971.126 41.086 35.549c0 0 4.172 62.034-20.733 106.863zm-222.12-170.224l-121.742 5.512-.252-.885a147.443 147.443 0 0 0-33.88-86.913l232.99-231.778s29.962-29.797 54.235-4.071c0 0 46.775 40.947 60.808 90.365a164.346 164.346 0 0 1-26.675 154.358s-49.304 68.596-165.483 73.412zm-169.907-97.684l-1.517-.658a146.356 146.356 0 0 0-83.185-36.396l1.77-324.115s.253-41.63 35.018-40.745c0 0 60.935-4.21 104.929 20.366a160.338 160.338 0 0 1 88.367 125.94s13.148 82.173-64.474 166.697zm19.721 109.795a118.708 118.708 0 1 1-118.708-119.1A118.835 118.835 0 0 1 630.722 512zm-206.95-118.063l-4.297 1.732-227.43-230.666s-29.202-29.582-3.919-53.74c0 0 40.202-46.359 88.874-60.29a159.896 159.896 0 0 1 151.577 26.22s67.255 48.747 71.933 163.827l5.183 120.553-9.355 3.705a146.457 146.457 0 0 0-72.565 28.659zm-21.49 13.83l-5.436 12.49a148.038 148.038 0 0 0-30.215 69.645l-1.517 3.363-324.14-1.353S-.618 491.773.267 456.666c0 0-4.172-61.49 20.48-105.914a161.628 161.628 0 0 1 126.167-89.367s82.172-13.4 166.62 64.778zM240.97 519.446l120.604-5.449 3.92 10.114a147.646 147.646 0 0 0 29.582 77.293l-230.59 229.325s-29.709 29.532-53.728 4.033c0 0-46.396-40.58-60.176-89.568a162.336 162.336 0 0 1 26.422-152.968s48.798-67.989 163.966-72.78zm166.621 98.747l4.425 1.934a146.255 146.255 0 0 0 81.035 38.153l-1.896 324.318s-.127 41.996-35.271 41.124c0 0-61.44 4.235-105.94-20.569a161.817 161.817 0 0 1-89.126-127.077s-13.274-82.868 64.98-168.138zm422.621 239.325s29.583 29.86 4.046 54.221c0 0-40.707 46.776-89.758 60.82a161.362 161.362 0 0 1-152.968-26.434s-67.887-49.19-72.439-165.293l-5.31-121.363a145.901 145.901 0 0 0 89.632-32.01z"/></svg>