<svg class="icon" viewBox="0 0 1024 1024" xmlns="http://www.w3.org/2000/svg"><path d="M1007.191 375.48A184.027 184.027 0 0 1 901.5 402.214H122.53A185.344 185.344 0 0 1 16.473 375.48a29.989 29.989 0 0 1 0-53.54L405.958 26.772a222.464 222.464 0 0 1 211.748 0l389.485 295.168a29.77 29.77 0 0 1 0 53.54zm-56.32 575.377A73.143 73.143 0 0 1 877.728 1024H653.18a150.857 150.857 0 0 0 5.12-36.571V804.572a146.285 146.285 0 0 0-292.57 0v182.857a150.857 150.857 0 0 0 5.12 36.571H146.3a73.143 73.143 0 0 1-73.142-73.143v-548.57H950.87v548.57z"/></svg>