<svg class="icon" viewBox="0 0 1024 1024" xmlns="http://www.w3.org/2000/svg"><path d="M940.584 410.175s-127.277-75.223-248.235-63.187a209.992 209.992 0 0 0-25.876 27.08 199.882 199.882 0 0 1 54.46 138.41 221.756 221.756 0 0 1-3.91 42.124c64.39 12.036 232.287 57.17 274.11 141.419 0 0 40.62 87.258-231.384 270.801 0 0-246.43 105.312-404.096 30.09a77.359 77.359 0 0 1 41.823-72.214s130.888-69.205 179.03-180.535a179.421 179.421 0 0 0-8.726-33.098 176.292 176.292 0 0 1-56.266 9.027 217.724 217.724 0 0 1-136.905-51.151c-49.948 51.151-162.18 159.472-251.545 150.445 0 0-98.09-9.027-122.763-330.98 0 0 30.69-258.765 173.915-358.06a75.915 75.915 0 0 1 41.523 72.214s-2.709 147.437 70.709 243.722c0 0 10.531 3.009 24.372 6.018a213.271 213.271 0 0 1 142.622-138.41c-21.062-66.196-59.877-216.641-9.027-291.864 0 0 57.47-78.231 351.44 60.178 0 0 213.633 156.463 227.173 327.97a80.067 80.067 0 0 1-82.444 0zm-434.185-24.071A124.87 124.87 0 1 0 631.87 512.478 126.374 126.374 0 0 0 506.4 386.104z"/></svg>