<svg class="icon" viewBox="0 0 1024 1024" xmlns="http://www.w3.org/2000/svg"><path d="M322.494 1024V17.388h379.012V1024H322.494zm368.119-23.915h4.355V839.203h-4.355v160.882zm0-197.84h4.355V534.828h-4.355v267.415zm0-304.375h4.355V252.2h-4.355v245.67zm0-282.63h4.355V36.96h-4.355v178.28zm-352.87 800.06h348.514v-4.344H337.743v4.344zm-4.356-991.385h-6.538v8.7h6.538v-8.7zm0 13.044h-4.355v178.28h4.355V36.96zm0 182.625h-6.538v28.26h6.538v-28.26zm0 32.615h-4.355V497.87h4.355V252.2zm0 250.015h-6.538v28.26h6.538v-28.26zm0 32.615h-4.355v267.415h4.355V534.83zm0 271.76h-6.538v28.26h6.538v-28.26zm0 32.614h-4.355v160.882h4.355V839.203zm0 165.226h-6.538v8.7h6.538v-8.7zm352.87-978.341H337.743v6.527h348.514v-6.527zm2.184 8.7H335.559V1006.6h352.882V34.787zm8.71-10.873h-6.538v8.7h6.538v-8.7zm0 195.669h-6.538v28.26h6.538v-28.26zm0 282.63h-6.538v28.26h6.538v-28.26zm0 304.374h-6.538v28.26h6.538v-28.26zm0 197.84h-6.538v8.7h6.538v-8.7zm-10.894 0H337.743V36.96h348.514v967.47zm-344.159-19.56h116.009V865.702H342.098V984.87zM681.902 41.305H342.098v123.4h116.009v-61.64h-.41v-2.216h.41V42.323h2.183v58.525h103.42V42.323h2.172v58.525h.421v2.217h-.421v61.64h116.02V41.303zm-221.612 61.76v61.64h103.42v-61.64H460.29zm221.612 65.974H342.098v64.864h339.804v-64.864zm0 67.047H342.098v65.906h339.804v-65.906zm0 68.09H342.098v66.837h339.804v-66.837zm0 68.987H342.098v64.93h339.804v-64.93zm0 69.297H342.098v124.398h339.804V442.46zm0 128.731H342.098v70.539h339.804v-70.54zm0 72.722H342.098v74.772h339.804v-74.772zm0 76.955H342.098v72.378h339.804v-72.378zm0 74.528H342.098v65.973h339.804v-65.973zM563.71 923.772v-58.07H460.29v58.07h103.42zm-103.42 2.183v58.914h103.42v-58.914H460.29zm221.612-60.254h-116.02V984.87h116.02V865.7zm0 123.512H342.098v10.872h339.804v-10.872zm-320.2-171.32h4.356v-2.173h4.355v2.172h4.355v-2.172h4.356v2.172h4.355v4.345h2.183v4.344h-2.183v4.355h2.183v4.344h-2.183v4.345h-4.355v2.183h-4.356v-2.183h-4.355v2.183h-4.355v-2.183h-4.355v-4.345h-2.184v-4.344h2.184v-4.355h-2.184v-4.344h2.184v-4.345zm2.173 4.344v15.215h17.432v-17.388h-17.432v2.173zm15.249 13.043h-13.066v-13.043h13.066v13.043zm17.432-17.388h4.356v-2.172h4.355v2.172h4.355v-2.172h4.355v2.172h4.356v4.345h2.183v4.344h-2.183v4.355h2.183v4.344h-2.183v4.345h-4.356v2.183h-4.355v-2.183h-4.355v2.183h-4.355v-2.183h-4.356v-4.345h-2.183v-4.344h2.183v-4.355h-2.183v-4.344h2.183v-4.345zm2.172 4.345v15.215h17.433v-17.388h-17.433v2.173zm15.25 13.043h-13.066v-13.043h13.065v13.043zm17.432-17.388h4.355v-2.172h4.356v2.172h4.355v-2.172h4.355v2.172h4.355v4.345h2.184v4.344h-2.184v4.355h2.184v4.344h-2.184v4.345h-4.355v2.183h-4.355v-2.183h-4.355v2.183h-4.356v-2.183h-4.355v-4.345h-2.183v-4.344h2.183v-4.355h-2.183v-4.344h2.183v-4.345zm2.172 4.345v15.215h17.421v-17.388h-17.421v2.173zm15.25 13.043h-13.067v-13.043h13.066v13.043zm17.42-17.388h4.356v-2.172h4.366v2.172h4.356v-2.172h4.355v2.172h4.355v4.345h2.172v4.344h-2.172v4.355h2.172v4.344h-2.172v4.345h-4.355v2.183h-4.355v-2.183h-4.356v2.183h-4.366v-2.183h-4.356v-4.345h-2.172v-4.344h2.172v-4.355h-2.172v-4.344h2.172v-4.345zm2.184 4.345v15.215h17.421v-17.388h-17.421v2.173zm15.249 13.043h-13.077v-13.043h13.077v13.043zm17.421-17.388h4.355v-2.172h4.356v2.172h4.355v-2.172h4.367v2.172h4.355v4.345h2.172v4.344h-2.172v4.355h2.172v4.344h-2.172v4.345h-4.355v2.183h-4.367v-2.183h-4.355v2.183h-4.356v-2.183h-4.355v-4.345h-2.172v-4.344h2.172v-4.355h-2.172v-4.344h2.172v-4.345zm2.183 4.345v15.215h17.422v-17.388h-17.422v2.173zm15.25 13.043H505.46v-13.043h13.078v13.043zm17.42-17.388h4.356v-2.172h4.355v2.172h4.356v-2.172h4.355v2.172h4.367v4.345h2.172v4.344h-2.172v4.355h2.172v4.344h-2.172v4.345h-4.367v2.183h-4.355v-2.183h-4.356v2.183h-4.355v-2.183h-4.355v-4.345h-2.183v-4.344h2.183v-4.355h-2.183v-4.344h2.183v-4.345zm2.184 4.345v15.215h17.421v-17.388h-17.421v2.173zm15.238 13.043h-13.066v-13.043h13.066v13.043zm17.433-17.388h4.355v-2.172h4.355v2.172h4.355v-2.172h4.356v2.172h4.355v4.345h2.183v4.344h-2.183v4.355h2.183v4.344h-2.183v4.345h-4.355v2.183h-4.356v-2.183h-4.355v2.183h-4.355v-2.183h-4.355v-4.345h-2.184v-4.344h2.184v-4.355h-2.184v-4.344h2.184v-4.345zm2.172 4.345v15.215h17.432v-17.388h-17.432v2.173zm15.249 13.043h-13.066v-13.043h13.066v13.043zm17.432-17.388h4.356v-2.172h4.355v2.172h4.355v-2.172h4.355v2.172h4.356v4.345h2.183v4.344h-2.183v4.355h2.183v4.344h-2.183v4.345h-4.356v2.183h-4.355v-2.183h-4.355v2.183h-4.355v-2.183h-4.356v-4.345h-2.183v-4.344h2.183v-4.355h-2.183v-4.344h2.183v-4.345zm2.172 4.345v15.215h17.433v-17.388h-17.433v2.173zm15.25 13.043h-13.066v-13.043h13.065v13.043zm17.432-17.388h4.355v-2.172h4.356v2.172h4.355v-2.172h4.355v2.172h4.355v4.345h2.184v4.344h-2.184v4.355h2.184v4.344h-2.184v4.345h-4.355v2.183h-4.355v-2.183h-4.355v2.183h-4.356v-2.183h-4.355v-4.345h-2.183v-4.344h2.183v-4.355h-2.183v-4.344h2.183v-4.345zm2.172 4.345v15.215h17.421v-17.388h-17.421v2.173zm15.25 13.043h-13.067v-13.043h13.066v13.043zm-296.24-93.523h21.776v6.517h4.355v23.915h-30.487v-23.915h4.356v-6.517zm0 26.088h21.776v-15.216h-21.776v15.216zm34.853-26.088h21.777v6.517h4.355v23.915h-30.487v-23.915h4.355v-6.517zm0 26.088h21.777v-15.216h-21.777v15.216zm34.854-26.088h21.776v6.517h4.356v23.915h-30.499v-23.915h4.367v-6.517zm0 26.088h21.776v-15.216H431.41v15.216zm34.842-26.088h21.788v6.517h4.355v23.915h-30.498v-23.915h4.355v-6.517zm0 26.088h21.788v-15.216h-21.788v15.216zm34.854-26.088h21.788v6.517h4.355v23.915h-30.498v-23.915h4.355v-6.517zm0 26.088h21.788v-15.216h-21.788v15.216zm34.854-26.088h21.788v6.517h4.355v23.915h-30.498v-23.915h4.355v-6.517zm0 26.088h21.788v-15.216H535.96v15.216zm34.854-26.088h21.776v6.517h4.355v23.915h-30.487v-23.915h4.356v-6.517zm0 26.088h21.776v-15.216h-21.776v15.216zm34.853-26.088h21.777v6.517h4.355v23.915h-30.487v-23.915h4.355v-6.517zm0 26.088h21.777v-15.216h-21.777v15.216zm34.854-26.088h21.776v6.517h4.356v23.915h-30.499v-23.915h4.367v-6.517zm0 26.088h21.776v-15.216h-21.776v15.216zM355.208 660.668h87.051a2.223 2.223 0 0 1 2.217 2.217v36.87a2.225 2.225 0 0 1-2.217 2.228h-87.05a2.216 2.216 0 0 1-2.217-2.228v-36.87a2.216 2.216 0 0 1 2.216-2.217zm2.14 36.96h82.773v-32.615h-82.774v32.615zm65.34-30.432h13.077v28.26h-13.077v-28.26zm-15.249 0h13.077v28.26h-13.077v-28.26zm-15.238 0h13.066v28.26H392.2v-28.26zm-15.25 0h13.067v28.26h-13.066v-28.26zm-15.248 0h13.065v28.26h-13.065v-28.26zm106.766-6.528h87.062a2.223 2.223 0 0 1 2.217 2.217v36.87a2.225 2.225 0 0 1-2.217 2.228H468.47a2.225 2.225 0 0 1-2.217-2.228v-36.87a2.223 2.223 0 0 1 2.217-2.217zm2.139 36.96h82.773v-32.615h-82.773v32.615zm65.352-30.432h13.066v28.26H535.96v-28.26zm-15.25 0h13.067v28.26H520.71v-28.26zm-15.249 0h13.078v28.26H505.46v-28.26zm-15.249 0h13.077v28.26h-13.077v-28.26zm-15.238 0h13.066v28.26h-13.066v-28.26zm106.767-6.528h87.05a2.216 2.216 0 0 1 2.217 2.217v36.87a2.216 2.216 0 0 1-2.216 2.228H581.74a2.225 2.225 0 0 1-2.217-2.228v-36.87a2.223 2.223 0 0 1 2.217-2.217zm2.138 36.96h82.774v-32.615h-82.774v32.615zm65.353-30.432h13.065v28.26h-13.065v-28.26zm-15.25 0h13.066v28.26h-13.066v-28.26zm-15.249 0H631.8v28.26h-13.066v-28.26zm-15.249 0h13.066v28.26h-13.066v-28.26zm-15.25 0h13.078v28.26h-13.077v-28.26zm-233.026-81.92h87.051a2.216 2.216 0 0 1 2.217 2.216v36.87a2.216 2.216 0 0 1-2.217 2.217h-87.05a2.209 2.209 0 0 1-2.217-2.216v-36.87a2.209 2.209 0 0 1 2.216-2.217zm2.14 36.96h82.773V589.62h-82.774v32.615zm65.34-30.444h13.077v28.271h-13.077v-28.27zm-15.249 0h13.077v28.271h-13.077v-28.27zm-15.238 0h13.066v28.271H392.2v-28.27zm-15.25 0h13.067v28.271h-13.066v-28.27zm-15.248 0h13.065v28.271h-13.065v-28.27zm106.766-6.516h87.062a2.216 2.216 0 0 1 2.217 2.216v36.87a2.216 2.216 0 0 1-2.217 2.217H468.47a2.216 2.216 0 0 1-2.217-2.216v-36.87a2.216 2.216 0 0 1 2.217-2.217zm2.139 36.96h82.773V589.62h-82.773v32.615zm65.352-30.444h13.066v28.271H535.96v-28.27zm-15.25 0h13.067v28.271H520.71v-28.27zm-15.249 0h13.078v28.271H505.46v-28.27zm-15.249 0h13.077v28.271h-13.077v-28.27zm-15.238 0h13.066v28.271h-13.066v-28.27zm106.767-6.516h87.05a2.209 2.209 0 0 1 2.217 2.216v36.87a2.209 2.209 0 0 1-2.216 2.217H581.74a2.216 2.216 0 0 1-2.217-2.216v-36.87a2.216 2.216 0 0 1 2.217-2.217zm2.138 36.96h82.774V589.62h-82.774v32.615zm65.353-30.444h13.065v28.271h-13.065v-28.27zm-15.25 0h13.066v28.271h-13.066v-28.27zm-15.249 0H631.8v28.271h-13.066v-28.27zm-15.249 0h13.066v28.271h-13.066v-28.27zm-15.25 0h13.078v28.271h-13.077v-28.27zm-126.836-87.206H563.71v-61.23h2.172V565.75h-2.172v-59.013H461.398v59.013h-2.183V443.357h2.183v61.229zm-99.695-115.244h21.776v6.516h4.355v23.916h-30.487v-23.916h4.356v-6.516zm0 26.087h21.776v-15.216h-21.776v15.216zm34.853-26.087h21.777v6.516h4.355v23.916h-30.487v-23.916h4.355v-6.516zm0 26.087h21.777v-15.216h-21.777v15.216zm34.854-26.087h21.776v6.516h4.356v23.916h-30.499v-23.916h4.367v-6.516zm0 26.087h21.776v-15.216H431.41v15.216zm34.842-26.087h21.788v6.516h4.355v23.916h-30.498v-23.916h4.355v-6.516zm0 26.087h21.788v-15.216h-21.788v15.216zm34.854-26.087h21.788v6.516h4.355v23.916h-30.498v-23.916h4.355v-6.516zm0 26.087h21.788v-15.216h-21.788v15.216zm34.854-26.087h21.788v6.516h4.355v23.916h-30.498v-23.916h4.355v-6.516zm0 26.087h21.788v-15.216H535.96v15.216zm34.854-26.087h21.776v6.516h4.355v23.916h-30.487v-23.916h4.356v-6.516zm0 26.087h21.776v-15.216h-21.776v15.216zm34.853-26.087h21.777v6.516h4.355v23.916h-30.487v-23.916h4.355v-6.516zm0 26.087h21.777v-15.216h-21.777v15.216zm34.854-26.087h21.776v6.516h4.356v23.916h-30.499v-23.916h4.367v-6.516zm0 26.087h21.776v-15.216h-21.776v15.216zm-278.818-93.667h4.355v-2.172h4.355v2.172h4.355v-2.172h4.356v2.172h4.355v4.355h2.183v4.345h-2.183v4.344h2.183v4.355h-2.183v4.344h-4.355v2.173h-4.356v-2.173h-4.355v2.173h-4.355v-2.173h-4.355v-4.344h-2.184v-4.355h2.184v-4.344h-2.184v-4.345h2.184v-4.355zm2.172 4.355v15.216h17.432v-17.399h-17.432v2.183zm15.249 13.044h-13.066v-13.044h13.066v13.044zm17.432-17.399h4.356v-2.172h4.355v2.172h4.355v-2.172h4.355v2.172h4.356v4.355h2.183v4.345h-2.183v4.344h2.183v4.355h-2.183v4.344h-4.356v2.173h-4.355v-2.173h-4.355v2.173h-4.355v-2.173h-4.356v-4.344h-2.183v-4.355h2.183v-4.344h-2.183v-4.345h2.183v-4.355zm2.172 4.355v15.216h17.433v-17.399h-17.433v2.183zm15.25 13.044h-13.066v-13.044h13.065v13.044zm17.432-17.399h4.355v-2.172h4.356v2.172h4.355v-2.172h4.355v2.172h4.355v4.355h2.184v4.345h-2.184v4.344h2.184v4.355h-2.184v4.344h-4.355v2.173h-4.355v-2.173h-4.355v2.173h-4.356v-2.173h-4.355v-4.344h-2.183v-4.355h2.183v-4.344h-2.183v-4.345h2.183v-4.355zm2.172 4.355v15.216h17.421v-17.399h-17.421v2.183zm15.25 13.044h-13.067v-13.044h13.066v13.044zm17.42-17.399h4.356v-2.172h4.366v2.172h4.356v-2.172h4.355v2.172h4.355v4.355h2.172v4.345h-2.172v4.344h2.172v4.355h-2.172v4.344h-4.355v2.173h-4.355v-2.173h-4.356v2.173h-4.366v-2.173h-4.356v-4.344h-2.172v-4.355h2.172v-4.344h-2.172v-4.345h2.172v-4.355zm2.184 4.355v15.216h17.421v-17.399h-17.421v2.183zm15.249 13.044h-13.077v-13.044h13.077v13.044zm17.421-17.399h4.355v-2.172h4.356v2.172h4.355v-2.172h4.367v2.172h4.355v4.355h2.172v4.345h-2.172v4.344h2.172v4.355h-2.172v4.344h-4.355v2.173h-4.367v-2.173h-4.355v2.173h-4.356v-2.173h-4.355v-4.344h-2.172v-4.355h2.172v-4.344h-2.172v-4.345h2.172v-4.355zm2.183 4.355v15.216h17.422v-17.399h-17.422v2.183zm15.25 13.044H505.46v-13.044h13.078v13.044zm17.42-17.399h4.356v-2.172h4.355v2.172h4.356v-2.172h4.355v2.172h4.367v4.355h2.172v4.345h-2.172v4.344h2.172v4.355h-2.172v4.344h-4.367v2.173h-4.355v-2.173h-4.356v2.173h-4.355v-2.173h-4.355v-4.344h-2.183v-4.355h2.183v-4.344h-2.183v-4.345h2.183v-4.355zm2.184 4.355v15.216h17.421v-17.399h-17.421v2.183zm15.238 13.044h-13.066v-13.044h13.066v13.044zm17.433-17.399h4.355v-2.172h4.355v2.172h4.355v-2.172h4.356v2.172h4.355v4.355h2.183v4.345h-2.183v4.344h2.183v4.355h-2.183v4.344h-4.355v2.173h-4.356v-2.173h-4.355v2.173h-4.355v-2.173h-4.355v-4.344h-2.184v-4.355h2.184v-4.344h-2.184v-4.345h2.184v-4.355zm2.172 4.355v15.216h17.432v-17.399h-17.432v2.183zm15.249 13.044h-13.066v-13.044h13.066v13.044zm17.432-17.399h4.356v-2.172h4.355v2.172h4.355v-2.172h4.355v2.172h4.356v4.355h2.183v4.345h-2.183v4.344h2.183v4.355h-2.183v4.344h-4.356v2.173h-4.355v-2.173h-4.355v2.173h-4.355v-2.173h-4.356v-4.344h-2.183v-4.355h2.183v-4.344h-2.183v-4.345h2.183v-4.355zm2.172 4.355v15.216h17.433v-17.399h-17.433v2.183zm15.25 13.044h-13.066v-13.044h13.065v13.044zm17.432-17.399h4.355v-2.172h4.356v2.172h4.355v-2.172h4.355v2.172h4.355v4.355h2.184v4.345h-2.184v4.344h2.184v4.355h-2.184v4.344h-4.355v2.173h-4.355v-2.173h-4.355v2.173h-4.356v-2.173h-4.355v-4.344h-2.183v-4.355h2.183v-4.344h-2.183v-4.345h2.183v-4.355zm2.172 4.355v15.216h17.421v-17.399h-17.421v2.183zm15.25 13.044h-13.067v-13.044h13.066v13.044zm-296.24-86.131h21.776v6.516h4.355v23.916h-30.487v-23.916h4.356v-6.516zm0 26.088h21.776v-15.216h-21.776v15.216zm34.853-26.088h21.777v6.516h4.355v23.916h-30.487v-23.916h4.355v-6.516zm0 26.088h21.777v-15.216h-21.777v15.216zm34.854-26.088h21.776v6.516h4.356v23.916h-30.499v-23.916h4.367v-6.516zm0 26.088h21.776v-15.216H431.41v15.216zm34.842-26.088h21.788v6.516h4.355v23.916h-30.498v-23.916h4.355v-6.516zm0 26.088h21.788v-15.216h-21.788v15.216zm34.854-26.088h21.788v6.516h4.355v23.916h-30.498v-23.916h4.355v-6.516zm0 26.088h21.788v-15.216h-21.788v15.216zm34.854-26.088h21.788v6.516h4.355v23.916h-30.498v-23.916h4.355v-6.516zm0 26.088h21.788v-15.216H535.96v15.216zm34.854-26.088h21.776v6.516h4.355v23.916h-30.487v-23.916h4.356v-6.516zm0 26.088h21.776v-15.216h-21.776v15.216zm34.853-26.088h21.777v6.516h4.355v23.916h-30.487v-23.916h4.355v-6.516zm0 26.088h21.777v-15.216h-21.777v15.216zm34.854-26.088h21.776v6.516h4.356v23.916h-30.499v-23.916h4.367v-6.516zm0 26.088h21.776v-15.216h-21.776v15.216zm-278.818-91.473h21.776v6.516h4.355v23.916h-30.487V194.16h4.356v-6.516zm0 26.087h21.776v-15.216h-21.776v15.216zm34.853-26.087h21.777v6.516h4.355v23.916h-30.487V194.16h4.355v-6.516zm0 26.087h21.777v-15.216h-21.777v15.216zm34.854-26.087h21.776v6.516h4.356v23.916h-30.499V194.16h4.367v-6.516zm0 26.087h21.776v-15.216H431.41v15.216zm34.842-26.087h21.788v6.516h4.355v23.916h-30.498V194.16h4.355v-6.516zm0 26.087h21.788v-15.216h-21.788v15.216zm34.854-26.087h21.788v6.516h4.355v23.916h-30.498V194.16h4.355v-6.516zm0 26.087h21.788v-15.216h-21.788v15.216zm34.854-26.087h21.788v6.516h4.355v23.916h-30.498V194.16h4.355v-6.516zm0 26.087h21.788v-15.216H535.96v15.216zm34.854-26.087h21.776v6.516h4.355v23.916h-30.487V194.16h4.356v-6.516zm0 26.087h21.776v-15.216h-21.776v15.216zm34.853-26.087h21.777v6.516h4.355v23.916h-30.487V194.16h4.355v-6.516zm0 26.087h21.777v-15.216h-21.777v15.216zm34.854-26.087h21.776v6.516h4.356v23.916h-30.499V194.16h4.367v-6.516zm0 26.087h21.776v-15.216h-21.776v15.216zM679.719 6.516H344.27v8.7h-21.776V0h379.012v15.216H679.72v-8.7z"/></svg>