<svg class="icon" viewBox="0 0 1194 1024" xmlns="http://www.w3.org/2000/svg"><path d="M1036.607 950.03C923.987 950.03 764.87 904 604.9 904c-160.823 0-322.5 44.621-438.104 44.621A414.6 414.6 0 0 1 0 916.542a843.619 843.619 0 0 1 326.34-208.43 424.753 424.753 0 0 0 558.828 6.271 843.96 843.96 0 0 1 309.276 202.16 360.38 360.38 0 0 1-157.837 33.487zM611.726 801.023a400.565 400.565 0 1 1 390.754-400.437 395.617 395.617 0 0 1-390.754 400.437zm326.765-386.53a261.37 261.37 0 1 0-261.497 268.195A265.081 265.081 0 0 0 938.49 414.492zm-466.686 5.844A229.802 229.802 0 1 1 701.31 656.026a232.703 232.703 0 0 1-229.504-235.69zm274.722 163.17a155.235 155.235 0 1 0-151.438-155.15 153.315 153.315 0 0 0 151.438 155.15zM604.9 915.134c159.97 0 319.088 46.029 431.707 46.029a360.38 360.38 0 0 0 157.837-33.487v62.836a360.765 360.765 0 0 1-157.837 33.444c-112.62 0-271.736-46.028-432.133-46.028s-322.073 44.62-437.678 44.62A415.07 415.07 0 0 1 0 990.514v-62.836a413.79 413.79 0 0 0 166.796 32.164c115.605.17 277.281-44.706 438.104-44.706z"/></svg>