<svg class="icon" viewBox="0 0 2494 1024" xmlns="http://www.w3.org/2000/svg"><path d="M1969.23 1024V656.41H2048v-78.769h367.59v78.77h78.769V1024h-525.128zm446.36-288.82H2048v210.05h367.59V735.18zM1969.23 78.77H2048V0h367.59v78.77h78.769v367.589h-525.128V78.769zM2048 367.59h367.59V157.538H2048V367.59zm-735.18 288.82h78.77v-78.769h367.59v78.77h78.769V1024H1312.82V656.41zm78.77 288.82h367.59V735.18h-367.59v210.05zm-78.77-866.46h78.77V0h367.59v78.77h78.769v367.589H1312.82V78.769zm78.77 288.82h367.59V157.538h-367.59V367.59zM656.41 656.41h78.77v-78.769h367.59v78.77h78.768V1024H656.41V656.41zm78.77 288.82h367.59V735.18H735.18v210.05zM656.41 78.77h78.77V0h367.59v78.77h78.768v367.589H656.41V78.769zm78.77 288.82h367.59V157.538H735.18V367.59zM0 656.41h78.77v-78.769h367.589v78.77h78.77V1024H0V656.41zm78.77 288.82h367.589V735.18H78.769v210.05zM0 78.77h78.77V0h367.589v78.77h78.77v367.589H0V78.769zm78.77 288.82h367.589V157.538H78.769V367.59z"/></svg>