<svg class="icon" viewBox="0 0 2677 1024" xmlns="http://www.w3.org/2000/svg"><path d="M1466.613 662.703c-170.774 0-256.415-96.857-256.415-285.472V0h136.618v377.23c0 112.15 41.802 163.128 125.914 163.128q123.874 0 123.874-152.932V0h136.11v372.133q0 290.57-266.101 290.57zm-694.819-10.195H551.573V0h220.73c227.359 0 340.528 107.052 340.528 316.058a323.297 323.297 0 0 1-95.327 244.69 338.794 338.794 0 0 1-245.71 91.76zm140.187-484.283A214.563 214.563 0 0 0 761.6 112.15h-73.917v423.11h74.426a191.827 191.827 0 0 0 152.422-56.075 224.3 224.3 0 0 0 55.055-158.029 197.282 197.282 0 0 0-57.604-152.931zM206.457 423.11H136.62v229.398H0V0h220.221C379.27 0 458.794 66.27 458.794 203.909a205.795 205.795 0 0 1-71.877 163.127 242.294 242.294 0 0 1-180.46 56.074zm-9.685-316.058h-60.153v209.006h58.623c80.544 0 120.307-35.684 120.307-107.052 0-66.27-39.763-101.954-118.777-101.954z"/></svg>