<svg class="icon" viewBox="0 0 1036 1024" xmlns="http://www.w3.org/2000/svg"><path d="M1024 987.429L950.857 1024H0V73.143L36.571 0l36.572 73.143v877.714h877.714zM149.577 412.635a205.531 205.531 0 0 0 161.28 20.81c130.194-45.934 268.434-288.512 424.96-343.772a404.005 404.005 0 0 1 276.114 19.017l24.138 68.974a396.47 396.47 0 0 0-273.189-20.041c-156.891 55.369-296.594 298.496-427.886 344.686a204.8 204.8 0 0 1-160.914-20.773zm0 329.143a205.422 205.422 0 0 0 161.28 20.773c130.194-45.897 268.434-288.439 424.96-343.772a404.114 404.114 0 0 1 276.114 18.981l24.138 69.01a396.47 396.47 0 0 0-273.189-20.04c-156.891 55.368-296.594 298.459-427.886 344.685a204.8 204.8 0 0 1-160.914-20.773z"/></svg>