<svg class="icon" viewBox="0 0 1170 1024" xmlns="http://www.w3.org/2000/svg"><path d="M559.83 697.87h50.857L625.62 367.3h-80.725zm25.025 37.94a44.803 44.803 0 0 0-33.098 12.917 40.363 40.363 0 0 0-14.127 33.097 43.995 43.995 0 0 0 14.127 33.098 44.803 44.803 0 0 0 33.098 13.723 50.453 50.453 0 0 0 34.308-12.916 45.61 45.61 0 0 0 13.723-33.501 40.363 40.363 0 0 0-13.723-33.098 46.417 46.417 0 0 0-34.308-12.916z"/><path d="M551.757 19.374L5.247 965.878A40.363 40.363 0 0 0 40.363 1024h1089.79a40.363 40.363 0 0 0 33.502-58.122L618.759 19.374a40.363 40.363 0 0 0-67.002 0zm43.995 90.816l463.767 803.216a40.363 40.363 0 0 1-33.5 58.123h-881.52a40.363 40.363 0 0 1-33.502-58.123L574.764 110.19a12.109 12.109 0 0 1 20.988 0z"/></svg>