<svg class="icon" viewBox="0 0 1062 1024" xmlns="http://www.w3.org/2000/svg"><path d="M836.238 754.726H574.549L455.462 1024l21.617-269.274H248.765a263.813 263.813 0 0 1 11.378-527.17 27.041 27.041 0 0 1 16.687 3.792 281.486 281.486 0 0 1 557.132 22.756 247.505 247.505 0 0 1 228.314 250.31 251.79 251.79 0 0 1-226.038 250.312zm-352.332-83.437l-52.338 11.378h51.2zm293.547-367.882C765.316 197.215 701.98 75.852 529.038 75.852c-102.4 0-188.113 113.778-207.455 212.385-4.172 0-8.344-3.793-12.516-3.793-107.71 0-232.865 91.023-232.865 201.008A195.736 195.736 0 0 0 262.42 682.667h88.367L569.239 189.63l-28.444 352.71L683.017 512l-76.61 170.667h210.489c94.814-7.586 169.529-113.778 169.529-189.63 0-83.437-113.399-182.044-208.972-189.63z"/></svg>