<svg class="icon" viewBox="0 0 1024 1024" xmlns="http://www.w3.org/2000/svg"><path d="M511.972 1023.893a263.713 263.713 0 0 1-271.03-255.973 254.377 254.377 0 0 1 126.48-216.824v-415.58a144.85 144.85 0 0 1 289.1 0v415.58a254.377 254.377 0 0 1 126.48 216.824 263.713 263.713 0 0 1-271.03 255.973zm90.343-442.683V153.584a90.554 90.554 0 0 0-180.687 0v18.069h72.275a16.322 16.322 0 0 1 18.069 15.057 18.731 18.731 0 0 1-18.069 18.069h-72.275v18.068h36.138a16.322 16.322 0 0 1 18.068 15.058 18.731 18.731 0 0 1-18.068 18.068h-36.138v18.07h36.138a16.322 16.322 0 0 1 18.068 15.056 18.731 18.731 0 0 1-18.068 18.069h-36.138v18.069h72.275a16.322 16.322 0 0 1 18.069 15.057 18.731 18.731 0 0 1-18.069 18.069h-72.275v18.068h36.138a16.322 16.322 0 0 1 18.068 15.058 18.731 18.731 0 0 1-18.068 18.068h-36.138v18.07h36.138a16.322 16.322 0 0 1 18.068 15.056 18.731 18.731 0 0 1-18.068 18.069h-36.138v18.069h72.275a16.322 16.322 0 0 1 18.069 15.057 18.731 18.731 0 0 1-18.069 18.069h-72.275v69.263a207.429 207.429 0 0 0-126.48 186.71 217.186 217.186 0 0 0 433.648 0 207.429 207.429 0 0 0-126.48-186.71zm-90.343 322.225A120.88 120.88 0 0 1 385.49 789c0-66.252 74.082-108.412 126.48-207.79C562.866 677.577 638.454 722.748 638.454 789a120.88 120.88 0 0 1-126.481 114.435z"/></svg>