<svg class="icon" viewBox="0 0 1024 1024" xmlns="http://www.w3.org/2000/svg"><path d="M1022.193 551.153a512.18 512.18 0 0 1-419.84 463.812A133.391 133.391 0 0 1 591.51 1024H443.633a107.008 107.008 0 0 1-8.433-9.035 527.27 527.27 0 0 1-224.376-90.353H199.68v-9.036A506.549 506.549 0 0 1 1.807 551.153H0v-45.177h.301A504.56 504.56 0 0 1 199.68 108.424l11.445-9.036A530.07 530.07 0 0 1 435.5 6.024 174.923 174.923 0 0 1 466.522 0h102.4a95.744 95.744 0 0 1 33.43 9.035A510.012 510.012 0 0 1 1023.7 505.976h.301v45.177h-1.807zm-45.478 0h-91.557a462.065 462.065 0 0 1-32.829 123.482h96.678a477.124 477.124 0 0 0 27.708-123.482zm-49.995 171.67h-97.28a797.274 797.274 0 0 1-97.882 150.589h67.764v3.012a442.73 442.73 0 0 0 127.398-153.6zm-230.099 0a1009.604 1009.604 0 0 1-52.706 150.589h41.563a797.274 797.274 0 0 0 97.882-150.588h-86.739zm109.628-48.188a451.765 451.765 0 0 0 33.13-123.482H727.04a812.815 812.815 0 0 1-17.77 123.482h96.98zM681.261 551.153H534.588v123.482h128.904a776.704 776.704 0 0 0 17.77-123.482zm-30.117 171.67H534.588v150.589h63.85a1044.841 1044.841 0 0 0 52.706-150.588zM534.588 505.977h147.878a760.742 760.742 0 0 0-13.553-132.517H534.588v132.517zm168.66-180.705h92.761A789.624 789.624 0 0 0 686.08 150.588h-42.165a1062.069 1062.069 0 0 1 59.332 174.683zm10.841 48.188a761.284 761.284 0 0 1 13.855 132.517h113.844A429.809 429.809 0 0 0 816.49 373.46h-102.4zm12.65 551.153h-36.744q-12.65 13.553-24.395 27.106c21.082-9.036 41.562-18.07 61.139-27.106zm-123.181 42.164c12.348-12.047 26.202-27.105 40.658-42.164h-22.588c-7.83 15.059-15.36 30.117-22.287 45.176a3.795 3.795 0 0 0 4.217-3.012zm-53.309 9.036c7.831-15.06 16.565-33.13 25.902-51.2h-41.563v51.2h15.661zm-64.753 0h3.615v-51.2h-29.817a486.008 486.008 0 0 0 26.202 51.2zm-48.188-3.012c-7.228-15.059-15.36-30.118-23.793-48.188h-22.287a534.89 534.89 0 0 0 43.37 45.176c.903 0 1.807 3.012 2.71 3.012zM307.501 505.976a760.742 760.742 0 0 1 13.553-132.517H218.955a429.809 429.809 0 0 0-25.299 132.517h113.845zm-111.435 45.177a451.072 451.072 0 0 0 32.828 123.482h97.28a776.704 776.704 0 0 1-17.77-123.482H196.067zM332.198 325.27a1034.571 1034.571 0 0 1 59.331-174.683h-42.164a789.624 789.624 0 0 0-109.93 174.683h92.763zm-80.113 397.553a797.274 797.274 0 0 0 97.882 150.588h41.261a1046.558 1046.558 0 0 1-52.404-150.588h-86.74zm122.88 234.917c-9.337-12.047-19.276-21.082-29.516-33.13h-49.091a654.246 654.246 0 0 0 78.607 33.13zM220.16 873.41h83.727a782.788 782.788 0 0 1-97.882-150.587H96.979A434.116 434.116 0 0 0 220.16 873.412zM74.993 674.636h108.122a451.072 451.072 0 0 1-32.828-123.482H46.984a477.576 477.576 0 0 0 28.009 123.482zm-29.214-168.66h102.4a439.416 439.416 0 0 1 25.6-132.517H66.86a476.13 476.13 0 0 0-21.08 132.517zm39.153-180.705h109.327a800.105 800.105 0 0 1 109.628-174.683h-83.426a451.313 451.313 0 0 0-135.53 174.683zM296.96 99.388h48.79c9.94-12.047 20.18-21.082 29.215-33.13a666.353 666.353 0 0 0-78.005 33.13zm137.336-45.176a491.31 491.31 0 0 0-43.369 45.176h22.588c8.734-18.07 16.565-33.13 23.793-48.188a28.4 28.4 0 0 0-3.012 3.012zm54.815-9.036c-1.205 0-2.41 3.012-3.615 3.012a429.417 429.417 0 0 0-26.503 51.2h30.118V45.176zm0 105.412h-52.405a1034.571 1034.571 0 0 0-59.332 174.683h111.737V150.588zm0 222.87H366.53a791.612 791.612 0 0 0-13.853 132.518H489.11V373.46zm0 177.695H354.184a776.704 776.704 0 0 0 17.769 123.482H489.11V551.153zM384.3 722.823a1009.604 1009.604 0 0 0 52.706 150.589h52.104V722.824H384.3zM550.55 48.188a30.118 30.118 0 0 1-15.963-3.012v54.212h41.864c-9.337-18.07-18.372-36.14-25.901-51.2zm-15.963 102.4v174.683H657.77a1035.716 1035.716 0 0 0-59.03-174.683h-64.15zm69.27-93.364a4.216 4.216 0 0 0-4.517-3.012c6.626 15.059 14.457 30.117 22.287 45.176h22.89c-14.457-15.059-28.31-30.117-40.66-42.164zm61.44 15.058q11.747 13.553 24.396 27.106h37.045c-19.878-9.035-40.057-18.07-61.44-27.106zm134.024 75.294v3.012h-68.066a789.624 789.624 0 0 1 109.93 174.683h97.581a438.121 438.121 0 0 0-139.445-177.695zM957.44 373.46h-96.075a430.893 430.893 0 0 1 25.9 132.517h90.956A487.213 487.213 0 0 0 957.44 373.46z"/></svg>