<svg class="icon" viewBox="0 0 1024 1024" xmlns="http://www.w3.org/2000/svg"><path d="M770.947 594.354a25.08 25.08 0 0 0-24.86-19.011 85.366 85.366 0 0 1-58.496-148.541 21.46 21.46 0 0 0 2.56-29.248 381.095 381.095 0 0 0-61.42-61.858 21.278 21.278 0 0 0-29.248 2.376 89.315 89.315 0 0 1-96.517 21.643 85.805 85.805 0 0 1-52.28-84.086 21.46 21.46 0 0 0-19.01-22.594 382.63 382.63 0 0 0-87.012-.22 21.278 21.278 0 0 0-19.01 21.936 86.426 86.426 0 0 1-53.012 82.515 89.424 89.424 0 0 1-95.786-21.936 21.68 21.68 0 0 0-29.247-2.45 387.822 387.822 0 0 0-62.517 61.86 21.643 21.643 0 0 0 2.194 29.247 85.732 85.732 0 0 1 21.935 96.48 89.753 89.753 0 0 1-84.452 52.28 21.204 21.204 0 0 0-22.301 18.974 392.83 392.83 0 0 0 0 87.926 25.592 25.592 0 0 0 25.226 19.01 84.928 84.928 0 0 1 79.7 52.975 86.134 86.134 0 0 1-21.57 95.603 21.387 21.387 0 0 0-2.56 29.248 379.78 379.78 0 0 0 61.42 61.895 21.314 21.314 0 0 0 29.248-2.34 89.132 89.132 0 0 1 96.516-21.68 85.695 85.695 0 0 1 52.28 84.087 21.46 21.46 0 0 0 19.011 22.594 387.786 387.786 0 0 0 87.012.219 21.643 21.643 0 0 0 19.01-22.155 86.39 86.39 0 0 1 53.012-82.478 89.278 89.278 0 0 1 95.785 21.936 21.68 21.68 0 0 0 29.248 2.45 401.678 401.678 0 0 0 62.516-61.86 21.716 21.716 0 0 0-2.559-29.247 85.44 85.44 0 0 1 57.399-148.87h5.118a21.058 21.058 0 0 0 22.301-18.938 372.54 372.54 0 0 0 .366-87.742zM387.439 767.097a128.982 128.982 0 1 1 128.689-128.945 129.055 129.055 0 0 1-128.69 128.945zm620.047-671.852a13.125 13.125 0 0 0-15.355-4.205 42.555 42.555 0 0 1-54.473-58.093 11.15 11.15 0 0 0-4.387-13.965 195.008 195.008 0 0 0-40.216-17.33 10.968 10.968 0 0 0-13.161 6.545 43.871 43.871 0 0 1-40.581 28.04 43.14 43.14 0 0 1-39.85-29.247A10.53 10.53 0 0 0 786.667.044a187.696 187.696 0 0 0-40.58 16.05 10.968 10.968 0 0 0-4.753 13.855 42.848 42.848 0 0 1-9.14 48.113 44.2 44.2 0 0 1-48.259 7.714 10.566 10.566 0 0 0-13.892 4.314 183.894 183.894 0 0 0-17.549 40.215 10.493 10.493 0 0 0 6.581 13.235 42.848 42.848 0 0 1 27.785 40.763 44.237 44.237 0 0 1-29.247 39.923 10.566 10.566 0 0 0-6.581 12.942 185.356 185.356 0 0 0 16.086 40.837 12.796 12.796 0 0 0 15.355 4.095 42.665 42.665 0 0 1 54.474 58.202 10.968 10.968 0 0 0 4.387 13.966 196.068 196.068 0 0 0 39.85 17.33 10.602 10.602 0 0 0 13.16-6.545 44.858 44.858 0 0 1 40.947-28.041 43.14 43.14 0 0 1 39.85 29.248 10.456 10.456 0 0 0 12.796 6.946 189.816 189.816 0 0 0 21.204-7.093c6.581-2.595 12.796-5.63 19.377-8.993a10.53 10.53 0 0 0 4.387-13.82 43.579 43.579 0 0 1 9.505-48.112 44.2 44.2 0 0 1 48.259-7.714 10.675 10.675 0 0 0 13.892-4.314 199.834 199.834 0 0 0 17.549-40.215 10.42 10.42 0 0 0-6.58-13.162 42.665 42.665 0 0 1-1.098-79.809l2.194-.804a10.639 10.639 0 0 0 6.946-13.015 185.612 185.612 0 0 0-16.086-40.764zM861.614 246.82a64.49 64.49 0 1 1 35.828-84.087 64.454 64.454 0 0 1-35.828 84.087z"/></svg>