<svg class="icon" viewBox="0 0 1024 1024" xmlns="http://www.w3.org/2000/svg"><path d="M512.29 0A512 512 0 1 1 0 512 512.166 512.166 0 0 1 512.29 0z"/><path d="M174.22 733.633c103.703-71.306 106.772-307.872 106.772-307.872a234.243 234.243 0 0 1 177.912-228.519v-24.888a53.386 53.386 0 1 1 106.73 0v24.888a234.285 234.285 0 0 1 177.954 228.519s1.66 235.446 106.773 307.872c0 .58-676.431 0-676.14 0zm473.298 35.425a135.228 135.228 0 1 1-270.456 0c0 1.369 271.493-.747 270.456 0z" style="fill: #bc5a5a"/></svg>