<svg class="icon" viewBox="0 0 1339 1024" xmlns="http://www.w3.org/2000/svg"><path d="M1111.83 350.523L934.993 775.877H379.274L202.043 350.523V74.831H101.218V0h1136.64v74.83h-126.031v275.693zM682.144 724.677h227.249v-51.2H682.144v51.2zm0-74.83h252.849v-51.2H682.144v51.2zm0-74.832h303.262v-51.2H682.144v51.2zm0-74.83h328.468v-51.2H682.144v51.2zM480.101 137.847a11.58 11.58 0 0 0-12.603-11.816h-176.84a11.382 11.382 0 0 0-12.603 11.816v23.63a11.382 11.382 0 0 0 12.603 11.816h176.837a11.58 11.58 0 0 0 12.603-11.816v-23.63zm151.631 236.308H278.055v51.2h353.674v-51.201zm0 74.83h-328.47v51.2H631.73v-51.2zm0 74.831H328.47v51.2h303.262v-51.2zm0 74.831H378.88v51.2h252.849v-51.2zm0 74.83H404.089v51.2h227.643v-51.2zM960.2 98.464a51.2 51.2 0 1 0 50.412 51.2 51.515 51.515 0 0 0-50.412-51.2zm75.618 275.692H682.146v51.2h353.674v-51.201zM180.776 913.723c60.258-74.83 214.646-63.015 214.646-63.015a349.972 349.972 0 0 0-169.354 98.461C170.929 1020.06 0 1024 0 1024a411.53 411.53 0 0 0 180.775-110.277zm243.397-23.63c60.258-74.832 215.04-66.955 215.04-66.955A350.523 350.523 0 0 0 469.464 921.6c-55.139 70.892-226.068 78.77-226.068 78.77s122.486-35.447 180.775-110.278zm429.686 0a411.53 411.53 0 0 0 180.775 110.276s-170.929-7.877-226.068-78.769a349.972 349.972 0 0 0-169.354-98.462s154.388-7.876 214.646 66.954zm304.443 23.63C1216.59 988.554 1339.08 1024 1339.08 1024s-170.929-3.938-226.068-74.83a350.523 350.523 0 0 0-169.748-98.462s154.782-11.816 215.04 63.015z"/></svg>