<?xml version="1.0" standalone="no"?><!DOCTYPE svg PUBLIC "-//W3C//DTD SVG 1.1//EN" "http://www.w3.org/Graphics/SVG/1.1/DTD/svg11.dtd"><svg class="icon" width="200px" height="185.17px" viewBox="0 0 1106 1024" version="1.1" xmlns="http://www.w3.org/2000/svg"><path d="M458.095347 153.335468a322.134625 322.134625 0 0 1 301.777387 208.34911h117.879596A462.614716 462.614716 0 0 0 462.397508 103.927231C207.071421 103.927231 0.012777 309.934519 0.012777 563.96284c0 1.522275 0.045632 3.029948 0.063884 4.548573 56.970331 95.016262 132.13313 184.987478 215.537024 229.210122 140.653491 74.582363 304.288959 63.773113 439.939385-24.447668 94.183939-61.252415 175.54353-91.719824 259.97505-117.70802 1.706628-8.396243 3.216126-16.843593 4.455485-25.389508H739.161394a322.227714 322.227714 0 0 1-281.066047 163.98957c-177.830593 0-322.052488-143.489961-322.052488-320.41522S280.264753 153.335468 458.095347 153.335468zM11.847828 667.709369A455.14206 455.14206 0 0 0 32.124754 732.676209c52.553178 61.487875 115.811565 115.075981 183.494407 150.964442 140.653491 74.582363 289.206752 61.619294 439.939385-9.411093 79.05245-37.253763 143.088402-59.901715 204.862844-76.173998a456.052869 456.052869 0 0 0 25.736309-49.921138c-69.561045 19.143433-135.455122 45.190038-224.29467 89.009298-125.74651 62.022679-319.931524 69.759999-448.406813 7.835884-83.668558-40.325693-143.358542-109.207737-201.612038-177.266585z m75.285092 164.966089a463.684324 463.684324 0 0 0 732.502808 23.241165c-47.564714 16.261332-97.361734 37.343202-157.769049 67.138911-125.74651 62.022679-322.090818 61.166627-450.566107-0.757487-48.119597-23.191882-87.996273-54.637636-124.167652-89.620763z" fill="#ffffff" /><path d="M512.030254 249.25889a233.953999 233.953999 0 0 1 157.174011 127.018723l46.741518-16.139039a282.973454 282.973454 0 0 0-213.209805-162.631569L467.252727 0h-53.389152l-33.85876 204.882922c-118.17529 33.767497-204.700395 142.250603-204.700396 270.85001 0 155.5769 126.613513 281.746873 282.734344 281.746873a282.734344 282.734344 0 0 0 237.263214-128.553776l-43.675063-23.03856a233.536013 233.536013 0 0 1-193.591801 102.558279c-128.944383 0-233.536013-104.222925-233.536013-232.721942A232.866138 232.866138 0 0 1 370.938698 259.748717l-63.457342 384.005807h64.066982l64.165546-388.293367 89.516723 390.060228 72.866609-2.555378 52.531275-216.659565-53.734128 2.482367-31.569872 117.109332-53.297888-296.639251zM670.560441 556.355114h91.754504c12.941165 0 25.781941-10.548236 28.538099-23.44377l17.758053-83.14288c2.756158-12.895533-5.5762-23.445595-18.51554-23.445595h-91.75633c-12.93934 0-25.781941 10.550061-28.538099 23.445595l-17.758053 83.146531c-2.756158 12.895533 5.5762 23.44377 18.517366 23.443769z m153.758931 0h91.754504c12.941165 0 25.781941-10.548236 28.539924-23.44377l17.758053-83.14288c2.756158-12.895533-5.5762-23.445595-18.517366-23.445595h-91.761805c-12.941165 0-25.783766 10.550061-28.539924 23.445595l-17.758053 83.14288c-2.756158 12.895533 5.5762 23.44377 18.517366 23.44377z m-113.201429-29.844992h27.716727a16.792485 16.792485 0 0 0 15.576856-12.791493l8.677334-40.499094a10.062714 10.062714 0 0 0-10.095569-12.791493h-27.716727a16.792485 16.792485 0 0 0-15.576856 12.791493l-8.677334 40.499094a10.062714 10.062714 0 0 0 10.095569 12.791493z m153.758931 0h27.716727a16.792485 16.792485 0 0 0 15.576855-12.791493l8.67916-40.499094a10.06454 10.06454 0 0 0-10.095569-12.791493h-27.718553a16.792485 16.792485 0 0 0-15.57503 12.791493l-8.679159 40.499094a10.06454 10.06454 0 0 0 10.095569 12.791493z m209.267221 29.844992h-93.91745c-14.112989 0-22.908965-11.508328-19.541342-25.575685l19.404447-81.010965c3.369449-14.067357 17.679567-25.57751 31.798031-25.57751h94.282504l-8.781375 36.237088h-73.029058l-14.291865 61.818249h72.339106l-8.268474 34.108823z" fill="#c11920" /></svg>