<svg class="icon" viewBox="0 0 1106 1024" xmlns="http://www.w3.org/2000/svg"><path d="M458.095 153.335a322.135 322.135 0 0 1 301.778 208.35h117.88a462.615 462.615 0 0 0-415.355-257.758C207.07 103.927.013 309.935.013 563.963c0 1.522.045 3.03.064 4.548 56.97 95.017 132.133 184.988 215.537 229.21 140.653 74.583 304.289 63.774 439.94-24.447 94.183-61.253 175.543-91.72 259.974-117.708 1.707-8.396 3.216-16.844 4.456-25.39H739.16a322.228 322.228 0 0 1-281.066 163.99c-177.83 0-322.052-143.49-322.052-320.415s144.222-320.416 322.052-320.416zM11.848 667.71a455.142 455.142 0 0 0 20.277 64.967c52.553 61.488 115.811 115.076 183.494 150.965 140.654 74.582 289.207 61.619 439.94-9.411 79.052-37.254 143.088-59.902 204.862-76.174a456.053 456.053 0 0 0 25.737-49.922c-69.561 19.144-135.455 45.19-224.295 89.01-125.746 62.022-319.931 69.76-448.407 7.836-83.668-40.326-143.358-109.208-201.612-177.267zm75.285 164.966a463.684 463.684 0 0 0 732.503 23.242c-47.565 16.261-97.362 37.343-157.77 67.139-125.746 62.022-322.09 61.166-450.565-.758-48.12-23.192-87.997-54.638-124.168-89.62z"/><path d="M512.03 249.259a233.954 233.954 0 0 1 157.174 127.019l46.742-16.14a282.973 282.973 0 0 0-213.21-162.631L467.253 0h-53.39l-33.858 204.883c-118.175 33.767-204.7 142.25-204.7 270.85 0 155.577 126.613 281.747 282.734 281.747a282.734 282.734 0 0 0 237.263-128.554l-43.675-23.039a233.536 233.536 0 0 1-193.592 102.559c-128.944 0-233.536-104.223-233.536-232.722a232.866 232.866 0 0 1 146.44-215.975L307.48 643.755h64.067l64.166-388.294 89.517 390.06 72.866-2.555 52.531-216.66-53.734 2.483-31.57 117.11-53.297-296.64zm158.53 307.096h91.755c12.941 0 25.782-10.548 28.538-23.444l17.758-83.143c2.756-12.895-5.576-23.445-18.515-23.445h-91.757c-12.94 0-25.782 10.55-28.538 23.445l-17.758 83.147c-2.756 12.896 5.576 23.444 18.517 23.444zm153.76 0h91.754c12.941 0 25.782-10.548 28.54-23.444l17.758-83.143c2.756-12.895-5.576-23.445-18.518-23.445h-91.761c-12.941 0-25.784 10.55-28.54 23.445l-17.758 83.143c-2.756 12.896 5.576 23.444 18.517 23.444zM711.117 526.51h27.717a16.792 16.792 0 0 0 15.577-12.791l8.677-40.5a10.063 10.063 0 0 0-10.096-12.791h-27.716A16.792 16.792 0 0 0 709.7 473.22l-8.678 40.499a10.063 10.063 0 0 0 10.096 12.791zm153.759 0h27.717a16.792 16.792 0 0 0 15.576-12.791l8.68-40.5a10.065 10.065 0 0 0-10.096-12.791h-27.719a16.792 16.792 0 0 0-15.575 12.792l-8.679 40.499a10.065 10.065 0 0 0 10.096 12.791zm209.267 29.845h-93.917c-14.113 0-22.91-11.508-19.542-25.576l19.405-81.01c3.37-14.068 17.68-25.578 31.798-25.578h94.282l-8.781 36.237h-73.03l-14.291 61.818h72.34l-8.27 34.11z"/></svg>